<svg width="24" height="24" viewBox="0 0 24 24" fill="none" xmlns="http://www.w3.org/2000/svg">
<mask id="mask0" mask-type="alpha" maskUnits="userSpaceOnUse" x="0" y="0" width="24" height="24">
<path d="M0.950012 0.984863H23.015V23.047H0.950012V0.984863Z" fill="white"/>
</mask>
<g mask="url(#mask0)">
<path fill-rule="evenodd" clip-rule="evenodd" d="M11.9826 0.984863C8.98629 0.984863 8.61059 0.997485 7.43387 1.05126C6.25952 1.10489 5.45754 1.29136 4.75585 1.56406C4.03033 1.84599 3.41506 2.22324 2.80172 2.83657C2.18839 3.44991 1.81114 4.06523 1.52925 4.79071C1.25641 5.49249 1.06994 6.29447 1.01641 7.46877C0.962682 8.64549 0.950012 9.02114 0.950012 12.0174C0.950012 15.0138 0.962682 15.3894 1.01641 16.5661C1.06994 17.7404 1.25641 18.5424 1.52925 19.2442C1.81114 19.9697 2.18839 20.585 2.80172 21.1983C3.41506 21.8117 4.03033 22.1889 4.75585 22.4709C5.45754 22.7435 6.25952 22.93 7.43387 22.9837C8.61059 23.0373 8.98629 23.05 11.9826 23.05C14.9788 23.05 15.3546 23.0373 16.5313 22.9837C17.7056 22.93 18.5076 22.7435 19.2093 22.4709C19.9348 22.1889 20.55 21.8117 21.1634 21.1983C21.7767 20.585 22.154 19.9697 22.4359 19.2442C22.7087 18.5424 22.8952 17.7404 22.9487 16.5661C23.0025 15.3894 23.0151 15.0138 23.0151 12.0174C23.0151 9.02114 23.0025 8.64549 22.9487 7.46877C22.8952 6.29447 22.7087 5.49249 22.4359 4.79071C22.154 4.06523 21.7767 3.44991 21.1634 2.83657C20.55 2.22324 19.9348 1.84599 19.2093 1.56406C18.5076 1.29136 17.7056 1.10489 16.5313 1.05126C15.3546 0.997485 14.9788 0.984863 11.9826 0.984863ZM11.9826 2.9727C14.9284 2.9727 15.2772 2.98392 16.4407 3.03697C17.5163 3.08606 18.1005 3.26585 18.4892 3.41688C19.0043 3.61704 19.3718 3.85612 19.7578 4.24217C20.1439 4.62827 20.383 4.99575 20.5831 5.51072C20.7341 5.89948 20.9139 6.4837 20.963 7.5593C21.016 8.72272 21.0273 9.07158 21.0273 12.0174C21.0273 14.9633 21.016 15.3122 20.963 16.4755C20.9139 17.5512 20.7341 18.1354 20.5831 18.5242C20.383 19.0391 20.1439 19.4066 19.7578 19.7927C19.3718 20.1788 19.0043 20.4179 18.4892 20.618C18.1005 20.7691 17.5163 20.9489 16.4407 20.9978C15.2774 21.051 14.9286 21.0622 11.9826 21.0622C9.03648 21.0622 8.68767 21.051 7.52445 20.9978C6.44885 20.9489 5.86463 20.7691 5.47587 20.618C4.9609 20.4179 4.59337 20.1788 4.20732 19.7927C3.82132 19.4066 3.58223 19.0391 3.38208 18.5242C3.231 18.1354 3.05125 17.5512 3.00212 16.4755C2.94912 15.3122 2.93785 14.9633 2.93785 12.0174C2.93785 9.07158 2.94912 8.72272 3.00212 7.5593C3.05125 6.4837 3.231 5.89948 3.38208 5.51072C3.58223 4.99575 3.82132 4.62827 4.20732 4.24217C4.59337 3.85612 4.9609 3.61704 5.47587 3.41688C5.86463 3.26585 6.44885 3.08606 7.52445 3.03697C8.68786 2.98392 9.03673 2.9727 11.9826 2.9727Z" fill="white"/>
</g>
<path fill-rule="evenodd" clip-rule="evenodd" d="M11.9825 15.6949C9.95151 15.6949 8.30499 14.0485 8.30499 12.0174C8.30499 9.98636 9.95151 8.33989 11.9825 8.33989C14.0136 8.33989 15.6601 9.98636 15.6601 12.0174C15.6601 14.0485 14.0136 15.6949 11.9825 15.6949ZM11.9825 6.35205C8.85367 6.35205 6.3172 8.88857 6.3172 12.0174C6.3172 15.1464 8.85367 17.6828 11.9825 17.6828C15.1114 17.6828 17.6479 15.1464 17.6479 12.0174C17.6479 8.88857 15.1114 6.35205 11.9825 6.35205Z" fill="white"/>
<path fill-rule="evenodd" clip-rule="evenodd" d="M19.1957 6.12812C19.1957 6.85926 18.603 7.45204 17.8718 7.45204C17.1406 7.45204 16.5479 6.85926 16.5479 6.12812C16.5479 5.39693 17.1406 4.8042 17.8718 4.8042C18.603 4.8042 19.1957 5.39693 19.1957 6.12812Z" fill="white"/>
</svg>
