<svg width="22" height="22" viewBox="0 0 22 22" fill="none" xmlns="http://www.w3.org/2000/svg">
<path fill-rule="evenodd" clip-rule="evenodd" d="M5.06699 8.6001H0.799988V21.025H5.06699V8.6001Z" fill="white"/>
<path fill-rule="evenodd" clip-rule="evenodd" d="M5.1755 3.36956C5.1478 1.99621 4.24886 0.950195 2.7891 0.950195C1.32934 0.950195 0.375 1.99621 0.375 3.36956C0.375 4.71445 1.30113 5.79059 2.73371 5.79059H2.76098C4.24886 5.79059 5.1755 4.71445 5.1755 3.36956Z" fill="white"/>
<path fill-rule="evenodd" clip-rule="evenodd" d="M21.2036 13.9378C21.2036 10.1214 19.0979 8.34521 16.2892 8.34521C14.023 8.34521 13.0084 9.55118 12.4419 10.3972V8.6373H8.1731C8.22935 9.80319 8.1731 21.0622 8.1731 21.0622H12.4419V14.1231C12.4419 13.7518 12.4696 13.3813 12.5825 13.1155C12.8909 12.3736 13.5933 11.6055 14.7725 11.6055C16.3177 11.6055 16.9353 12.7449 16.9353 14.4145V21.0618H21.2034L21.2036 13.9378Z" fill="white"/>
</svg>
