<svg width="21" height="17" viewBox="0 0 21 17" fill="none" xmlns="http://www.w3.org/2000/svg">
<path d="M6.81148 16.3798C14.1268 16.3798 18.1273 10.2384 18.1273 4.91268C18.1273 4.73824 18.1238 4.56459 18.1161 4.39173C18.8927 3.82284 19.5676 3.11291 20.1 2.30475C19.3874 2.62574 18.6205 2.84182 17.816 2.93925C18.6371 2.4403 19.2675 1.65101 19.5649 0.71009C18.7965 1.17172 17.9456 1.50724 17.0395 1.68838C16.3137 0.90501 15.2805 0.415039 14.1364 0.415039C11.9401 0.415039 10.1591 2.21995 10.1591 4.44476C10.1591 4.76102 10.194 5.06865 10.2622 5.36373C6.95679 5.19518 4.02576 3.59145 2.06416 1.15286C1.7226 1.74846 1.52565 2.44032 1.52565 3.17853C1.52565 4.5768 2.22779 5.81118 3.29549 6.53332C2.64299 6.51289 2.03004 6.33138 1.4943 6.02925C1.49371 6.04616 1.49371 6.06265 1.49371 6.08072C1.49371 8.03256 2.86461 9.6622 4.68441 10.0315C4.35022 10.1238 3.9986 10.1733 3.6357 10.1733C3.37982 10.1733 3.13053 10.1478 2.88822 10.1006C3.39455 11.702 4.86277 12.8673 6.60348 12.8998C5.24227 13.981 3.52752 14.625 1.66388 14.625C1.34325 14.625 1.02651 14.6065 0.71521 14.5692C2.47536 15.7125 4.56537 16.3796 6.8117 16.3796" fill="white"/>
</svg>
